<?xml version="1.0" encoding="UTF-8"?>
<svg width="120" height="120" viewBox="0 0 120 120" fill="none" xmlns="http://www.w3.org/2000/svg">
  <rect width="120" height="120" rx="30" fill="#00B6BF"/>
  <path d="M60 30C44.536 30 32 42.536 32 58C32 73.464 44.536 86 60 86C75.464 86 88 73.464 88 58C88 42.536 75.464 30 60 30ZM60 38C64.42 38 68 41.58 68 46C68 50.42 64.42 54 60 54C55.58 54 52 50.42 52 46C52 41.58 55.58 38 60 38ZM60 78.8C53 78.8 46.82 75.34 43.4 70.04C43.5 64.02 55.4 60.7 60 60.7C64.58 60.7 76.5 64.02 76.6 70.04C73.18 75.34 67 78.8 60 78.8Z" fill="white"/>
</svg>