<?xml version="1.0" encoding="UTF-8"?>
<svg width="512" height="512" viewBox="0 0 512 512" fill="none" xmlns="http://www.w3.org/2000/svg">
  <path fill-rule="evenodd" clip-rule="evenodd" d="M256 42.667C158.72 42.667 80 121.387 80 218.667C80 315.947 158.72 394.667 256 394.667C353.28 394.667 432 315.947 432 218.667C432 121.387 353.28 42.667 256 42.667ZM256 96C284.613 96 307.333 118.72 307.333 147.333C307.333 175.947 284.613 198.667 256 198.667C227.387 198.667 204.667 175.947 204.667 147.333C204.667 118.72 227.387 96 256 96ZM256 352C211.2 352 171.52 328.533 149.333 293.333C150 255.147 224 234.667 256 234.667C287.893 234.667 361.893 255.147 362.667 293.333C340.48 328.533 300.8 352 256 352Z" fill="#00B6BF"/>
</svg>