<?xml version="1.0" encoding="UTF-8"?>
<svg width="1024" height="1024" viewBox="0 0 1024 1024" fill="none" xmlns="http://www.w3.org/2000/svg">
  <rect width="1024" height="1024" rx="256" fill="#00B6BF"/>
  <path fill-rule="evenodd" clip-rule="evenodd" d="M512 256C379.744 256 272 363.744 272 496C272 628.256 379.744 736 512 736C644.256 736 752 628.256 752 496C752 363.744 644.256 256 512 256ZM512 324C549.48 324 580 354.52 580 392C580 429.48 549.48 460 512 460C474.52 460 444 429.48 444 392C444 354.52 474.52 324 512 324ZM512 674C453 674 400.98 644.88 371.4 600.32C372.25 548.16 472.9 520.6 512 520.6C550.88 520.6 651.75 548.16 652.6 600.32C623.02 644.88 571 674 512 674Z" fill="white"/>
</svg>